HIERARCHY
ROOT hips
{
  OFFSET 0 10.6860622 2.3727825e-15
  CHANNELS 6 Xposition Yposition Zposition Yrotation Xrotation Zrotation
  JOINT leftUpperLeg
  {
    OFFSET 0.6642549969 -0.9402397400000004 0
    CHANNELS 3 Yrotation Xrotation Zrotation
    JOINT leftLowerLeg
    {
      OFFSET 0 -3.997221335632195 0
      CHANNELS 3 Yrotation Xrotation Zrotation
      JOINT leftFoot
      {
        OFFSET -0.13777839790000004 -4.6145792000000005 -0.22186036399999998
        CHANNELS 3 Yrotation Xrotation Zrotation
        JOINT leftToes
        {
          OFFSET -0.03777410834999995 -0.9130806927000008 0.85230013
          CHANNELS 3 Yrotation Xrotation Zrotation
          End Site
          {
            OFFSET -0.03777410834999995 -0.9130806927000008 0.85230013
          }
        }
      }
    }
  }
  JOINT rightUpperLeg
  {
    OFFSET -0.6642778626 -0.9402397400000004 0
    CHANNELS 3 Yrotation Xrotation Zrotation
    JOINT rightLowerLeg
    {
      OFFSET 0 -3.997221452859387 0
      CHANNELS 3 Yrotation Xrotation Zrotation
      JOINT rightFoot
      {
        OFFSET 0.1377926176 -4.6145792000000005 -0.22185782299999995
        CHANNELS 3 Yrotation Xrotation Zrotation
        JOINT rightToes
        {
          OFFSET 0.037780746850000047 -0.9130806927000008 0.85230167
          CHANNELS 3 Yrotation Xrotation Zrotation
          End Site
          {
            OFFSET 0.037780746850000047 -0.9130806927000008 0.85230167
          }
        }
      }
    }
  }
  JOINT spine
  {
    OFFSET 0 0.13988381660000015 0
    CHANNELS 3 Yrotation Xrotation Zrotation
    JOINT chest
    {
      OFFSET 0 0.6191039003973773 0
      CHANNELS 3 Yrotation Xrotation Zrotation
      JOINT upperChest
      {
        OFFSET 0 0.9855186130586943 0
        CHANNELS 3 Yrotation Xrotation Zrotation
        JOINT leftShoulder
        {
          OFFSET 0.1807663869 1.5087829790000005 0
          CHANNELS 3 Yrotation Xrotation Zrotation
          JOINT leftUpperArm
          {
            OFFSET 0.5985063006419806 0 0
            CHANNELS 3 Yrotation Xrotation Zrotation
            JOINT leftLowerArm
            {
              OFFSET 2.2993332369501065 0 0
              CHANNELS 3 Yrotation Xrotation Zrotation
              JOINT leftHand
              {
                OFFSET 2.395047042602395 0 0
                CHANNELS 3 Yrotation Xrotation Zrotation
                JOINT leftIndexProximal
                {
                  OFFSET 0.5766295810000004 0.04556643899499946 0.17265095988184
                  CHANNELS 3 Yrotation Xrotation Zrotation
                  JOINT leftIndexIntermediate
                  {
                    OFFSET 0.2957229000000008 -0.019352197700001517 -0.007932640616999987
                    CHANNELS 3 Yrotation Xrotation Zrotation
                    JOINT leftIndexDistal
                    {
                      OFFSET 0.19008243099999922 -0.012484908149998475 -0.002786250786000012
                      CHANNELS 3 Yrotation Xrotation Zrotation
                      End Site
                      {
                        OFFSET 0.19008243099999922 -0.012484908149998475 -0.002786250786000012
                      }
                    }
                  }
                }
                JOINT leftMiddleProximal
                {
                  OFFSET 0.5834975091000001 0.0524350405149987 0.02204081888183999
                  CHANNELS 3 Yrotation Xrotation Zrotation
                  JOINT leftMiddleIntermediate
                  {
                    OFFSET 0.33880573540000003 -0.019871473270000717 -0.00000971183179999946
                    CHANNELS 3 Yrotation Xrotation Zrotation
                    JOINT leftMiddleDistal
                    {
                      OFFSET 0.20676022730000088 -0.012221336379999448 0.0001471936708000235
                      CHANNELS 3 Yrotation Xrotation Zrotation
                      End Site
                      {
                        OFFSET 0.20676022730000088 -0.012221336379999448 0.0001471936708000235
                      }
                    }
                  }
                }
                JOINT leftLittleProximal
                {
                  OFFSET 0.5344154683999995 -0.012880921405001189 -0.24414037221816004
                  CHANNELS 3 Yrotation Xrotation Zrotation
                  JOINT leftLittleIntermediate
                  {
                    OFFSET 0.21758961730000093 -0.011650919939999227 0.011893592810000034
                    CHANNELS 3 Yrotation Xrotation Zrotation
                    JOINT leftLittleDistal
                    {
                      OFFSET 0.1475273964999999 -0.008152365682999818 0.006001092492999946
                      CHANNELS 3 Yrotation Xrotation Zrotation
                      End Site
                      {
                        OFFSET 0.1475273964999999 -0.008152365682999818 0.006001092492999946
                      }
                    }
                  }
                }
                JOINT leftRingProximal
                {
                  OFFSET 0.5799399463000003 0.026911854694997794 -0.12150566991816003
                  CHANNELS 3 Yrotation Xrotation Zrotation
                  JOINT leftRingIntermediate
                  {
                    OFFSET 0.26167887460000006 -0.013480186499999602 0.010996293000000053
                    CHANNELS 3 Yrotation Xrotation Zrotation
                    JOINT leftRingDistal
                    {
                      OFFSET 0.17667108799999987 -0.008990287899999228 0.0055541023999999065
                      CHANNELS 3 Yrotation Xrotation Zrotation
                      End Site
                      {
                        OFFSET 0.17667108799999987 -0.008990287899999228 0.0055541023999999065
                      }
                    }
                  }
                }
                JOINT leftThumbProximal
                {
                  OFFSET 0.11018806699999972 -0.09448718900500053 0.17047963138184
                  CHANNELS 3 Yrotation Xrotation Zrotation
                  JOINT leftThumbIntermediate
                  {
                    OFFSET 0.31062601459999983 -0.08126270900000132 0.15443142000000007
                    CHANNELS 3 Yrotation Xrotation Zrotation
                    JOINT leftThumbDistal
                    {
                      OFFSET 0.21627175790000086 -0.08833193599999878 0.018771167799999988
                      CHANNELS 3 Yrotation Xrotation Zrotation
                      End Site
                      {
                        OFFSET 0.21627175790000086 -0.08833193599999878 0.018771167799999988
                      }
                    }
                  }
                }
              }
            }
          }
        }
        JOINT neck
        {
          OFFSET 0 1.5463305265074576 0
          CHANNELS 3 Yrotation Xrotation Zrotation
          JOINT head
          {
            OFFSET 0 0.8456443600000344 0
            CHANNELS 3 Yrotation Xrotation Zrotation
            JOINT leftEye
            {
              OFFSET 0.30408573140000006 0.5104519199999995 0.1276382305
              CHANNELS 3 Yrotation Xrotation Zrotation
              End Site
              {
                OFFSET 0.30408573140000006 0.5104519199999995 0.1276382305
              }
            }
            JOINT rightEye
            {
              OFFSET -0.30409491089999996 0.5104519199999995 0.1276379445
              CHANNELS 3 Yrotation Xrotation Zrotation
              End Site
              {
                OFFSET -0.30409491089999996 0.5104519199999995 0.1276379445
              }
            }
            JOINT jaw
            {
              OFFSET -3.155239131000001e-7 -0.11984121820000082 0.60178107
              CHANNELS 3 Yrotation Xrotation Zrotation
              End Site
              {
                OFFSET -3.155239131000001e-7 -0.11984121820000082 0.60178107
              }
            }
          }
        }
        JOINT rightShoulder
        {
          OFFSET -0.1807303465 1.5087829790000005 0
          CHANNELS 3 Yrotation Xrotation Zrotation
          JOINT rightUpperArm
          {
            OFFSET -0.5985063796536958 0 0
            CHANNELS 3 Yrotation Xrotation Zrotation
            JOINT rightLowerArm
            {
              OFFSET -2.2993322059002854 0 0
              CHANNELS 3 Yrotation Xrotation Zrotation
              JOINT rightHand
              {
                OFFSET -2.395045314457259 0 0
                CHANNELS 3 Yrotation Xrotation Zrotation
                JOINT rightIndexProximal
                {
                  OFFSET -0.5764487688300002 0.0441371204405987 0.17361932004999997
                  CHANNELS 3 Yrotation Xrotation Zrotation
                  JOINT rightIndexIntermediate
                  {
                    OFFSET -0.29573011380000047 -0.01934826376999843 -0.007698921482999974
                    CHANNELS 3 Yrotation Xrotation Zrotation
                    JOINT rightIndexDistal
                    {
                      OFFSET -0.19008373999999884 -0.012503266380000655 -0.0026365778999999897
                      CHANNELS 3 Yrotation Xrotation Zrotation
                      End Site
                      {
                        OFFSET -0.19008373999999884 -0.012503266380000655 -0.0026365778999999897
                      }
                    }
                  }
                }
                JOINT rightMiddleProximal
                {
                  OFFSET -0.5834852037300005 0.05211639405060153 0.02307162440000001
                  CHANNELS 3 Yrotation Xrotation Zrotation
                  JOINT rightMiddleIntermediate
                  {
                    OFFSET -0.33880114510000003 -0.019952774050000954 0.0002455003561999819
                    CHANNELS 3 Yrotation Xrotation Zrotation
                    JOINT rightMiddleDistal
                    {
                      OFFSET -0.20675694929999955 -0.012273788999999091 0.00030209124000002766
                      CHANNELS 3 Yrotation Xrotation Zrotation
                      End Site
                      {
                        OFFSET -0.20675694929999955 -0.012273788999999091 0.00030209124000002766
                      }
                    }
                  }
                }
                JOINT rightLittleProximal
                {
                  OFFSET -0.5346811737299992 -0.011214256288399227 -0.24363941305000003
                  CHANNELS 3 Yrotation Xrotation Zrotation
                  JOINT rightLittleIntermediate
                  {
                    OFFSET -0.21757715980000092 -0.011771559690000988 0.01201554387
                    CHANNELS 3 Yrotation Xrotation Zrotation
                    JOINT rightLittleDistal
                    {
                      OFFSET -0.1475201849000004 -0.00822055339600003 0.006082065407000015
                      CHANNELS 3 Yrotation Xrotation Zrotation
                      End Site
                      {
                        OFFSET -0.1475201849000004 -0.00822055339600003 0.006082065407000015
                      }
                    }
                  }
                }
                JOINT rightRingProximal
                {
                  OFFSET -0.5800810755299999 0.027657985680600072 -0.12066365025000003
                  CHANNELS 3 Yrotation Xrotation Zrotation
                  JOINT rightRingIntermediate
                  {
                    OFFSET -0.26166445029999974 -0.013623118409999302 0.011164098990000045
                    CHANNELS 3 Yrotation Xrotation Zrotation
                    JOINT rightRingDistal
                    {
                      OFFSET -0.17666387530000027 -0.009072900100000503 0.005668185599999959
                      CHANNELS 3 Yrotation Xrotation Zrotation
                      End Site
                      {
                        OFFSET -0.17666387530000027 -0.009072900100000503 0.005668185599999959
                      }
                    }
                  }
                }
                JOINT rightThumbProximal
                {
                  OFFSET -0.10997596379000074 -0.09577489355940072 0.16989765924999997
                  CHANNELS 3 Yrotation Xrotation Zrotation
                  JOINT rightThumbIntermediate
                  {
                    OFFSET -0.31036620999999986 -0.08229339117999834 0.15440884469999996
                    CHANNELS 3 Yrotation Xrotation Zrotation
                    JOINT rightThumbDistal
                    {
                      OFFSET -0.21631306399999906 -0.08825326400000111 0.018656797720000014
                      CHANNELS 3 Yrotation Xrotation Zrotation
                      End Site
                      {
                        OFFSET -0.21631306399999906 -0.08825326400000111 0.018656797720000014
                      }
                    }
                  }
                }
              }
            }
          }
        }
      }
    }
  }
}
MOTION
Frames: 5
Frame Time: 0.03333333333333333
-0.10561289554348381 -8.254479453854357 3.8085545014701405 -180 -47.34604799541366 -7.616207854797754e-15 77.69491730963271 -50.89911629843518 -21.54690759457674 -64.47672411901686 31.018384579026062 -37.98504842799865 39.48869081805513 15.41160007046614 26.514962143205867 0 0 0 -77.71731460000134 -50.90892366736226 21.560084705982717 64.48506658221486 31.028478946245887 37.98282758573941 -39.498765524549235 15.40397503008821 -26.52601842906064 0 0 0 -0.7349232994796822 30.870343632053594 -2.6500070435191705 1.110561255688062 40.406805192971774 0.8928451286546676 0 0 0 -19.078830276946267 13.849066745558451 6.653981963950793 -24.21990459481853 -21.766601319997882 -51.739091038244666 1.1862673634745855 0.9472916770511245 -6.7248531820796 -14.020897819750754 -7.677452584746396 -6.4233666713348505 0 0 0 0 0 0 0 0 0 0 0 0 0 0 0 0 0 0 0 0 0 0 0 0 0 0 0 0 0 0 0 0 0 0 0 0 0 0 0 0 0 0 0 0 0 -0.23436548238286503 -31.12100007987787 -8.476240982426013 -25.082231491887843 -15.086707838470529 -5.032589334686593 0 0 0 0 0 0 0 0 0 19.576896462986717 14.361991914768216 -5.749163364949886 23.856693357634907 -21.31290174778103 50.987583313881714 -1.4027467256341049 0.954702065660745 6.306235201564148 14.426153912529637 -8.631253283241152 6.220295646069971 0 0 0 0 0 0 0 0 0 0 0 0 0 0 0 0 0 0 0 0 0 0 0 0 0 0 0 0 0 0 0 0 0 0 0 0 0 0 0 0 0 0 0 0 0
-0.10561289554348381 -8.254479453854357 3.8304824184281183 -180 -46.69337379589654 -7.444226612425852e-15 78.0840122726321 -50.916793801608634 -22.38963564059987 -64.28409362897459 30.761816592244823 -37.6487626431855 39.746939382809 15.622153309701726 26.498307039691603 0 0 0 -78.10730925224885 -50.92683787438964 22.403559299655708 64.29301942205987 30.772261542431043 37.64660844326929 -39.75733037964121 15.614242130032622 -26.509719450624118 0 0 0 -0.7362936487931384 31.04542219395012 -2.65265525397791 1.110561255688062 40.406805192971774 0.8928451286546676 0 0 0 -19.15442336345565 13.57910714468588 6.91136007722462 -24.21990459481853 -21.766601319997882 -51.739091038244666 1.1862673634745855 0.9472916770511245 -6.7248531820796 -14.480346895993467 -7.940493704939851 -5.92904721699737 0 0 0 0 0 0 0 0 0 0 0 0 0 0 0 0 0 0 0 0 0 0 0 0 0 0 0 0 0 0 0 0 0 0 0 0 0 0 0 0 0 0 0 0 0 -0.2554335635751493 -30.405294885814893 -8.421350365331724 -25.01600210450881 -14.65100221684824 -4.7436258133419695 0 0 0 0 0 0 0 0 0 19.672824500207494 14.11689728060335 -5.964769173397066 23.856693357634907 -21.31290174778103 50.987583313881714 -1.4027467256341049 0.954702065660745 6.306235201564148 14.91111404830338 -8.9371725630861 5.7101407894465215 0 0 0 0 0 0 0 0 0 0 0 0 0 0 0 0 0 0 0 0 0 0 0 0 0 0 0 0 0 0 0 0 0 0 0 0 0 0 0 0 0 0 0 0 0
-0.10561289554348381 -8.254479453854357 3.874338520736346 -180 -45.388285561272966 -7.112462824532142e-15 78.86338520738848 -50.941306451134054 -24.075993349445994 -63.90564425307252 30.24584573524799 -36.98190727288124 40.26403399723124 16.04343511814271 26.467909872021565 0 0 0 -78.88865937955521 -50.951811182576044 24.09155794351273 63.915711043736856 30.257002415627642 36.9798553773629 -40.27504440811269 16.034946000737722 -26.480018226767633 0 0 0 -0.7390688281235371 31.395562420702923 -2.657981211523566 1.1105611687624901 40.406805192971774 0.8928450585862707 0 0 0 -19.309071852353718 13.040239186983761 7.426309776930284 -24.21990459481853 -21.766601319997882 -51.739091038244666 1.1862673634745855 0.9472916770511245 -6.7248531820796 -15.406710625755155 -8.454565505660595 -4.933361516813674 0 0 0 0 0 0 0 0 0 0 0 0 0 0 0 0 0 0 0 0 0 0 0 0 0 0 0 0 0 0 0 0 0 0 0 0 0 0 0 0 0 0 0 0 0 -0.294911135890211 -28.968526504852086 -8.313238643013928 -24.876860591844853 -13.778825410165663 -4.164626418199384 0 0 0 0 0 0 0 0 0 19.867203822035993 13.627797745011625 -6.396537904985243 23.856693357634907 -21.31290174778103 50.987583313881714 -1.4027467256341049 0.954702065660745 6.306235201564148 15.890206740311388 -9.535919823120265 4.6810058378556505 0 0 0 0 0 0 0 0 0 0 0 0 0 0 0 0 0 0 0 0 0 0 0 0 0 0 0 0 0 0 0 0 0 0 0 0 0 0 0 0 0 0 0 0 0
-0.10561289554348381 -8.254479453854357 3.8962664376943232 -180 -44.73599336870476 -6.952342206785289e-15 79.25345916911962 -50.948141303293625 -24.919379115777836 -63.71979816047262 29.98648093418645 -36.651319916301176 40.52287547022034 16.254153751923475 26.454174231057397 0 0 0 -79.27969946137375 -50.95884818706823 24.935739639775 63.73041946560115 29.99800071047975 36.64930709810344 -40.53420214737234 16.245371022247564 -26.466631936250025 0 0 0 -0.7404751572703769 31.57063131233869 -2.6606599041718026 1.110561255688062 40.406805192971774 0.8928451286546676 0 0 0 -19.388120351780703 12.77135424950981 7.683894232605101 -24.21990459481853 -21.766601319997882 -51.739091038244666 1.1862673634745855 0.9472916770511245 -6.7248531820796 -15.873529412098598 -8.705494270088302 -4.432096988323546 0 0 0 0 0 0 0 0 0 0 0 0 0 0 0 0 0 0 0 0 0 0 0 0 0 0 0 0 0 0 0 0 0 0 0 0 0 0 0 0 0 0 0 0 0 -0.3133564006209606 -28.247570034179383 -8.259971324414746 -24.803940883975955 -13.342414757127186 -3.874548603364415 0 0 0 0 0 0 0 0 0 19.965654826496657 13.383810620302233 -6.612706863737623 23.856693357634907 -21.31290174778103 50.987583313881714 -1.4027467256341049 0.954702065660745 6.306235201564148 16.384238809380246 -9.828610193772807 4.162129683211691 0 0 0 0 0 0 0 0 0 0 0 0 0 0 0 0 0 0 0 0 0 0 0 0 0 0 0 0 0 0 0 0 0 0 0 0 0 0 0 0 0 0 0 0 0
-0.10561289554348381 -8.254479453854357 3.9401228083948214 -180 -43.43204746932581 -6.642811047598543e-15 80.0335478276915 -50.950943828975035 -26.60569221842071 -63.354786787348125 29.465104150987727 -35.9957250143172 41.04120177034338 16.675700992385302 26.429654400501242 0 0 0 -80.06181634272136 -50.96203633338978 26.62372608671199 63.36652093755786 29.47735075123474 35.993785614510784 -41.05314778842828 16.666328773193666 -26.442802462196497 0 0 0 -0.7433244746329041 31.920750699028808 -2.666045569027014 1.110561255688062 40.406805192971774 0.8928451286546676 0 0 0 -19.549653028743176 12.234733524976816 8.1993051301678 -24.21990459481853 -21.766601319997882 -51.739091038244666 1.1862673634745855 0.9472916770511245 -6.7248531820796 -16.81416983200979 -9.194864367084815 -3.4229780426590284 0 0 0 0 0 0 0 0 0 0 0 0 0 0 0 0 0 0 0 0 0 0 0 0 0 0 0 0 0 0 0 0 0 0 0 0 0 0 0 0 0 0 0 0 0 -0.34774549047500797 -26.80076372529271 -8.154905580930569 -24.651410266088522 -12.469097250955864 -3.2931310689058373 0 0 0 0 0 0 0 0 0 20.16506348272213 12.897005670954556 -7.045624384116534 23.856693357634907 -21.31290174778103 50.987583313881714 -1.4027467256341049 0.954702065660745 6.306235201564148 17.381000277277536 -10.400284048673107 3.116024776568435 0 0 0 0 0 0 0 0 0 0 0 0 0 0 0 0 0 0 0 0 0 0 0 0 0 0 0 0 0 0 0 0 0 0 0 0 0 0 0 0 0 0 0 0 0
